<svg width="324" height="207" viewBox="0 0 324 207" fill="none" xmlns="http://www.w3.org/2000/svg">
<path d="M10 5H224C276.467 5 319 47.533 319 100V107C319 159.467 276.467 202 224 202H100C47.5329 202 5 159.467 5 107V10C5 7.23858 7.23858 5 10 5Z" stroke="#00F7E8" stroke-width="10"/>
<path d="M80.8963 114V92.1818H85.5092V110.197H94.8629V114H80.8963ZM97.8326 114V97.6364H102.371V114H97.8326ZM100.112 95.527C99.4377 95.527 98.8588 95.3033 98.3759 94.8558C97.9 94.4013 97.6621 93.858 97.6621 93.2259C97.6621 92.6009 97.9 92.0646 98.3759 91.6172C98.8588 91.1626 99.4377 90.9354 100.112 90.9354C100.787 90.9354 101.362 91.1626 101.838 91.6172C102.321 92.0646 102.563 92.6009 102.563 93.2259C102.563 93.858 102.321 94.4013 101.838 94.8558C101.362 95.3033 100.787 95.527 100.112 95.527ZM119.621 102.303L115.467 102.558C115.396 102.203 115.243 101.884 115.009 101.599C114.774 101.308 114.465 101.077 114.082 100.907C113.705 100.729 113.254 100.641 112.729 100.641C112.026 100.641 111.433 100.79 110.95 101.088C110.467 101.379 110.225 101.77 110.225 102.26C110.225 102.651 110.381 102.981 110.694 103.251C111.006 103.521 111.543 103.737 112.303 103.901L115.264 104.497C116.855 104.824 118.041 105.349 118.822 106.074C119.604 106.798 119.994 107.75 119.994 108.929C119.994 110.001 119.678 110.942 119.046 111.752C118.421 112.562 117.562 113.194 116.468 113.648C115.381 114.096 114.128 114.32 112.707 114.32C110.541 114.32 108.815 113.869 107.53 112.967C106.251 112.058 105.502 110.822 105.282 109.259L109.746 109.025C109.881 109.685 110.207 110.19 110.726 110.538C111.244 110.879 111.908 111.049 112.718 111.049C113.513 111.049 114.153 110.896 114.636 110.591C115.126 110.278 115.374 109.877 115.381 109.387C115.374 108.975 115.2 108.638 114.859 108.375C114.518 108.105 113.993 107.899 113.283 107.757L110.449 107.192C108.851 106.873 107.661 106.319 106.88 105.531C106.106 104.742 105.719 103.737 105.719 102.516C105.719 101.464 106.003 100.559 106.571 99.799C107.146 99.0391 107.952 98.4531 108.989 98.0412C110.033 97.6293 111.255 97.4233 112.654 97.4233C114.721 97.4233 116.347 97.8601 117.533 98.7337C118.727 99.6072 119.423 100.797 119.621 102.303ZM131.556 97.6364V101.045H121.702V97.6364H131.556ZM123.939 93.7159H128.477V108.972C128.477 109.391 128.541 109.717 128.669 109.952C128.797 110.179 128.974 110.339 129.202 110.431C129.436 110.523 129.706 110.57 130.011 110.57C130.224 110.57 130.437 110.552 130.65 110.516C130.863 110.474 131.027 110.442 131.14 110.42L131.854 113.798C131.627 113.869 131.307 113.95 130.895 114.043C130.483 114.142 129.983 114.202 129.393 114.224C128.3 114.266 127.341 114.121 126.517 113.787C125.7 113.453 125.064 112.935 124.61 112.232C124.155 111.528 123.932 110.641 123.939 109.568V93.7159Z" fill="#00F7E8"/>
<path d="M181.87 152.389C179.219 152.447 176.932 151.628 175.006 149.932C173.081 148.235 172.091 146.168 172.038 143.728C171.984 141.288 172.882 139.179 174.731 137.4C176.581 135.621 178.83 134.702 181.481 134.644C184.131 134.586 186.419 135.405 188.344 137.101C190.27 138.797 191.259 140.865 191.312 143.305C191.366 145.745 190.468 147.854 188.619 149.633C186.77 151.412 184.52 152.33 181.87 152.389ZM230.056 151.332C227.406 151.39 225.118 150.571 223.193 148.875C221.267 147.179 220.278 145.111 220.224 142.672C220.171 140.232 221.069 138.122 222.918 136.344C224.767 134.565 227.017 133.646 229.667 133.588C232.317 133.53 234.605 134.349 236.531 136.045C238.456 137.741 239.445 139.809 239.499 142.249C239.552 144.689 238.654 146.798 236.805 148.577C234.956 150.356 232.706 151.274 230.056 151.332ZM176.218 81.5016L188.269 103.428L221.999 102.689L234.764 80.2183L176.218 81.5016ZM171.446 72.7298L242.521 71.1719C244.368 71.1315 245.79 71.8585 246.787 73.353C247.784 74.8475 247.858 76.3808 247.008 77.9528L230.524 106.718C229.673 108.216 228.514 109.388 227.046 110.234C225.578 111.08 223.961 111.522 222.194 111.561L186.295 112.348L181.189 121.336L239.013 120.069L239.207 128.941L181.383 130.208C177.769 130.288 175.007 128.887 173.096 126.007C171.185 123.127 171.041 120.227 172.664 117.307L178.931 106.296L160.845 72.9622L151.208 73.1734L151.013 64.3013L166.674 63.9581L171.446 72.7298Z" fill="#00F6F8"/>
</svg>
