<svg width="25" height="25" viewBox="0 0 30 30" fill="none" xmlns="http://www.w3.org/2000/svg">
<path d="M15 0C12.2334 0 9.9297 1.96607 9.54304 4.5H4.14769C4.08053 4.48907 4.01251 4.48368 3.94438 4.48389C3.88551 4.4851 3.82682 4.49048 3.76879 4.5H1.19973C0.773141 4.49426 0.376347 4.70742 0.161292 5.05786C-0.0537639 5.40829 -0.0537639 5.84171 0.161292 6.19214C0.376347 6.54258 0.773141 6.75574 1.19973 6.75H2.88625L4.87159 26.272C5.08536 28.3769 6.9657 30 9.18879 30H20.8097C23.0329 30 24.9132 28.3771 25.1269 26.272L27.1137 6.75H28.8003C29.2269 6.75574 29.6237 6.54258 29.8387 6.19214C30.0538 5.84171 30.0538 5.40829 29.8387 5.05786C29.6237 4.70742 29.2269 4.49426 28.8003 4.5H26.2327C26.1073 4.48064 25.9793 4.48064 25.8539 4.5H20.457C20.0703 1.96607 17.7666 0 15 0ZM15 2.25C16.4819 2.25 17.6976 3.20112 18.045 4.5H11.955C12.3024 3.20112 13.5181 2.25 15 2.25ZM5.26126 6.75H24.7372L22.7719 26.0552C22.6733 27.0265 21.8354 27.75 20.8097 27.75H9.18879C8.16448 27.75 7.32508 27.0252 7.22657 26.0552L5.26126 6.75ZM12.2215 10.4839C11.5688 10.4936 11.0477 11.0042 11.0571 11.625V22.875C11.051 23.2807 11.2752 23.6581 11.6436 23.8626C12.0121 24.0672 12.4678 24.0672 12.8363 23.8626C13.2047 23.6581 13.4289 23.2807 13.4228 22.875V11.625C13.4274 11.3208 13.3023 11.0278 13.0759 10.8128C12.8496 10.5978 12.5413 10.4791 12.2215 10.4839ZM17.7416 10.4839C17.0889 10.4936 16.5678 11.0042 16.5772 11.625V22.875C16.5711 23.2807 16.7953 23.6581 17.1637 23.8626C17.5322 24.0672 17.9879 24.0672 18.3564 23.8626C18.7248 23.6581 18.949 23.2807 18.9429 22.875V11.625C18.9475 11.3208 18.8224 11.0278 18.596 10.8128C18.3697 10.5978 18.0614 10.4791 17.7416 10.4839Z" fill="white"/>
</svg>
