<svg viewBox="0 0 11 11" fill="none" xmlns="http://www.w3.org/2000/svg">
<path d="M2.1001 1.0001C2.00628 1.0001 1.91236 1.03584 1.84086 1.10752L1.10752 1.84086C0.964158 1.98422 0.964158 2.21635 1.10752 2.35935L3.78161 5.03343L1.10752 7.70752C0.964158 7.85089 0.964158 8.08301 1.10752 8.22601L1.84086 8.95934C1.98422 9.10271 2.21635 9.10271 2.35935 8.95934L5.03343 6.28526L7.70752 8.95934C7.85052 9.10271 8.08301 9.10271 8.22601 8.95934L8.95934 8.22601C9.10271 8.08264 9.10271 7.85052 8.95934 7.70752L6.28526 5.03343L8.95934 2.35935C9.10271 2.21635 9.10271 1.98386 8.95934 1.84086L8.22601 1.10752C8.08264 0.964158 7.85052 0.964158 7.70752 1.10752L5.03343 3.78161L2.35935 1.10752C2.28766 1.03584 2.19392 1.0001 2.1001 1.0001Z" fill="white"/>
</svg>
